PathFileType	4	(X/Y/Z)	C:\Users\italobelli\Desktop\GitHub\PTbot_officialCBL\Personal_Results\SHRUG01_noisy1.trc
DataRate	CameraRate	NumFrames	NumMarkers	Units	OrigDataRate	OrigDataStartFrame	OrigNumFrames
110.888889	110.888889	42	9	m	110.888889	63	500
Frame#	Time		gu		centelbow		EpL		centpxt8		centijc7		ij		ts		aa		ai
			X1	Y1	Z1	X2	Y2	Z2	X3	Y3	Z3	X4	Y4	Z4	X5	Y5	Z5	X6	Y6	Z6	X7	Y7	Z7	X8	Y8	Z8	X9	Y9	Z9

63	0.55912	-0.079101	-0.0098094	0.16728	-0.11148	-0.24438	0.21199	-0.090826	-0.2386	0.23612	-0.046816	-0.15316	-0.008669	-0.046816	0.031938	-0.008669	0	0	0	-0.1389	0.031581	0.058191	-0.10474	0.028833	0.17241	-0.16075	-0.079508	0.06768
64	0.56814	-0.079112	-0.0097703	0.16729	-0.11151	-0.24426	0.21214	-0.090864	-0.23848	0.23628	-0.046816	-0.15316	-0.008669	-0.046816	0.031938	-0.008669	0	0	0	-0.13886	0.031672	0.058176	-0.10474	0.028908	0.1724	-0.16074	-0.079424	0.067675
65	0.57715	-0.079123	-0.0097278	0.1673	-0.11154	-0.24415	0.2123	-0.0909	-0.23836	0.23645	-0.046816	-0.15316	-0.008669	-0.046816	0.031938	-0.008669	0	0	0	-0.13882	0.031767	0.058161	-0.10473	0.028989	0.17239	-0.16073	-0.079335	0.06767
66	0.58617	-0.079135	-0.0096821	0.16731	-0.11157	-0.24403	0.21247	-0.090934	-0.23824	0.23663	-0.046816	-0.15316	-0.008669	-0.046816	0.031938	-0.008669	0	0	0	-0.13878	0.031866	0.058145	-0.10473	0.029076	0.17238	-0.16071	-0.079241	0.067664
67	0.59519	-0.079148	-0.009633	0.16732	-0.1116	-0.24391	0.21264	-0.090966	-0.23812	0.23681	-0.046816	-0.15316	-0.008669	-0.046816	0.031938	-0.008669	0	0	0	-0.13873	0.031969	0.058128	-0.10472	0.029168	0.17237	-0.1607	-0.079143	0.067657
68	0.60421	-0.079161	-0.0095807	0.16733	-0.11162	-0.24379	0.21281	-0.090996	-0.23799	0.237	-0.046816	-0.15316	-0.008669	-0.046816	0.031938	-0.008669	0	0	0	-0.13868	0.032076	0.05811	-0.10472	0.029266	0.17236	-0.16069	-0.079039	0.067649
69	0.61323	-0.079174	-0.0095252	0.16734	-0.11164	-0.24367	0.213	-0.091025	-0.23786	0.23719	-0.046816	-0.15316	-0.008669	-0.046816	0.031938	-0.008669	0	0	0	-0.13863	0.032187	0.058091	-0.10471	0.02937	0.17235	-0.16067	-0.078931	0.067641
70	0.62224	-0.079188	-0.0094665	0.16736	-0.11166	-0.24355	0.21318	-0.091052	-0.23773	0.23739	-0.046816	-0.15316	-0.008669	-0.046816	0.031938	-0.008669	0	0	0	-0.13858	0.032302	0.058071	-0.1047	0.029479	0.17234	-0.16065	-0.078819	0.067632
71	0.63126	-0.079202	-0.0094046	0.16738	-0.11167	-0.24342	0.21338	-0.091077	-0.2376	0.2376	-0.046816	-0.15316	-0.008669	-0.046816	0.031938	-0.008669	0	0	0	-0.13853	0.032421	0.058051	-0.1047	0.029593	0.17233	-0.16064	-0.078702	0.067623
72	0.64028	-0.079216	-0.0093395	0.16739	-0.11169	-0.24329	0.21358	-0.0911	-0.23746	0.23781	-0.046816	-0.15316	-0.008669	-0.046816	0.031938	-0.008669	0	0	0	-0.13848	0.032543	0.058029	-0.10469	0.029713	0.17232	-0.16062	-0.078581	0.067614
73	0.6493	-0.079231	-0.0092712	0.16741	-0.1117	-0.24316	0.21378	-0.091122	-0.23733	0.23802	-0.046816	-0.15316	-0.008669	-0.046816	0.031938	-0.008669	0	0	0	-0.13842	0.03267	0.058007	-0.10468	0.029839	0.17231	-0.1606	-0.078455	0.067603
74	0.65832	-0.079246	-0.0091999	0.16743	-0.11171	-0.24303	0.21399	-0.091142	-0.23719	0.23824	-0.046816	-0.15316	-0.008669	-0.046816	0.031938	-0.008669	0	0	0	-0.13836	0.032799	0.057984	-0.10467	0.029969	0.1723	-0.16058	-0.078325	0.067593
75	0.66733	-0.079261	-0.0091255	0.16745	-0.11172	-0.2429	0.2142	-0.09116	-0.23704	0.23847	-0.046816	-0.15316	-0.008669	-0.046816	0.031938	-0.008669	0	0	0	-0.13831	0.032932	0.057961	-0.10466	0.030105	0.17229	-0.16056	-0.078191	0.067582
76	0.67635	-0.079277	-0.009048	0.16747	-0.11173	-0.24276	0.21442	-0.091176	-0.2369	0.2387	-0.046816	-0.15316	-0.008669	-0.046816	0.031938	-0.008669	0	0	0	-0.13825	0.033068	0.057936	-0.10466	0.030246	0.17228	-0.16053	-0.078053	0.06757
77	0.68537	-0.079292	-0.0089674	0.1675	-0.11173	-0.24263	0.21464	-0.09119	-0.23675	0.23893	-0.046816	-0.15316	-0.008669	-0.046816	0.031938	-0.008669	0	0	0	-0.13819	0.033208	0.057911	-0.10465	0.030392	0.17226	-0.16051	-0.077911	0.067559
78	0.69439	-0.079308	-0.0088838	0.16752	-0.11173	-0.24249	0.21487	-0.091203	-0.2366	0.23917	-0.046816	-0.15316	-0.008669	-0.046816	0.031938	-0.008669	0	0	0	-0.13812	0.033351	0.057885	-0.10464	0.030543	0.17225	-0.16048	-0.077765	0.067547
79	0.70341	-0.079324	-0.0087972	0.16754	-0.11173	-0.24235	0.2151	-0.091214	-0.23645	0.23941	-0.046816	-0.15316	-0.008669	-0.046816	0.031938	-0.008669	0	0	0	-0.13806	0.033496	0.057858	-0.10463	0.030699	0.17224	-0.16046	-0.077615	0.067534
80	0.71242	-0.07934	-0.0087077	0.16757	-0.11173	-0.2422	0.21534	-0.091223	-0.2363	0.23965	-0.046816	-0.15316	-0.008669	-0.046816	0.031938	-0.008669	0	0	0	-0.138	0.033645	0.05783	-0.10462	0.03086	0.17222	-0.16043	-0.077462	0.067522
81	0.72144	-0.079356	-0.0086152	0.16759	-0.11173	-0.24205	0.21558	-0.091231	-0.23614	0.2399	-0.046816	-0.15316	-0.008669	-0.046816	0.031938	-0.008669	0	0	0	-0.13793	0.033797	0.057801	-0.1046	0.031026	0.17221	-0.16041	-0.077305	0.067509
82	0.73046	-0.079373	-0.0085197	0.16761	-0.11172	-0.24191	0.21583	-0.091236	-0.23598	0.24016	-0.046816	-0.15316	-0.008669	-0.046816	0.031938	-0.008669	0	0	0	-0.13786	0.033951	0.057772	-0.10459	0.031196	0.1722	-0.16038	-0.077144	0.067497
83	0.73948	-0.079389	-0.0084214	0.16764	-0.11171	-0.24175	0.21607	-0.09124	-0.23582	0.24041	-0.046816	-0.15316	-0.008669	-0.046816	0.031938	-0.008669	0	0	0	-0.1378	0.034108	0.057742	-0.10458	0.031371	0.17218	-0.16035	-0.07698	0.067484
84	0.7485	-0.079405	-0.0083201	0.16766	-0.1117	-0.2416	0.21633	-0.091243	-0.23565	0.24067	-0.046816	-0.15316	-0.008669	-0.046816	0.031938	-0.008669	0	0	0	-0.13773	0.034268	0.057711	-0.10457	0.031551	0.17217	-0.16032	-0.076812	0.067471
85	0.75752	-0.079421	-0.008216	0.16769	-0.11169	-0.24144	0.21658	-0.091243	-0.23548	0.24094	-0.046816	-0.15316	-0.008669	-0.046816	0.031938	-0.008669	0	0	0	-0.13766	0.03443	0.057679	-0.10456	0.031735	0.17215	-0.16029	-0.076641	0.067458
86	0.76653	-0.079437	-0.0081091	0.16772	-0.11168	-0.24128	0.21684	-0.091242	-0.23531	0.2412	-0.046816	-0.15316	-0.008669	-0.046816	0.031938	-0.008669	0	0	0	-0.13759	0.034595	0.057647	-0.10454	0.031924	0.17214	-0.16026	-0.076467	0.067445
87	0.77555	-0.079453	-0.0079993	0.16774	-0.11166	-0.24112	0.2171	-0.091239	-0.23513	0.24147	-0.046816	-0.15316	-0.008669	-0.046816	0.031938	-0.008669	0	0	0	-0.13752	0.034762	0.057613	-0.10453	0.032117	0.17212	-0.16022	-0.07629	0.067432
88	0.78457	-0.079469	-0.0078868	0.16777	-0.11165	-0.24096	0.21737	-0.091234	-0.23495	0.24175	-0.046816	-0.15316	-0.008669	-0.046816	0.031938	-0.008669	0	0	0	-0.13744	0.034931	0.057579	-0.10452	0.032315	0.1721	-0.16019	-0.076109	0.067419
89	0.79359	-0.079485	-0.0077715	0.16779	-0.11163	-0.24079	0.21763	-0.091228	-0.23477	0.24202	-0.046816	-0.15316	-0.008669	-0.046816	0.031938	-0.008669	0	0	0	-0.13737	0.035103	0.057545	-0.1045	0.032517	0.17209	-0.16016	-0.075926	0.067406
90	0.80261	-0.079501	-0.0076534	0.16782	-0.11161	-0.24062	0.21791	-0.09122	-0.23459	0.2423	-0.046816	-0.15316	-0.008669	-0.046816	0.031938	-0.008669	0	0	0	-0.1373	0.035277	0.057509	-0.10449	0.032723	0.17207	-0.16012	-0.07574	0.067393
91	0.81162	-0.079516	-0.0075326	0.16784	-0.11159	-0.24045	0.21818	-0.09121	-0.2344	0.24258	-0.046816	-0.15316	-0.008669	-0.046816	0.031938	-0.008669	0	0	0	-0.13722	0.035452	0.057473	-0.10448	0.032933	0.17205	-0.16009	-0.07555	0.06738
92	0.82064	-0.079531	-0.0074091	0.16787	-0.11156	-0.24027	0.21845	-0.091199	-0.23421	0.24286	-0.046816	-0.15316	-0.008669	-0.046816	0.031938	-0.008669	0	0	0	-0.13715	0.03563	0.057436	-0.10446	0.033148	0.17203	-0.16005	-0.075358	0.067368
93	0.82966	-0.079546	-0.0072829	0.16789	-0.11154	-0.24009	0.21873	-0.091185	-0.23401	0.24314	-0.046816	-0.15316	-0.008669	-0.046816	0.031938	-0.008669	0	0	0	-0.13707	0.035809	0.057398	-0.10445	0.033366	0.17201	-0.16001	-0.075164	0.067356
94	0.83868	-0.07956	-0.0071541	0.16791	-0.11151	-0.23991	0.21901	-0.09117	-0.23382	0.24342	-0.046816	-0.15316	-0.008669	-0.046816	0.031938	-0.008669	0	0	0	-0.137	0.03599	0.057359	-0.10443	0.033589	0.17199	-0.15998	-0.074967	0.067344
95	0.8477	-0.079574	-0.0070227	0.16793	-0.11148	-0.23972	0.2193	-0.091154	-0.23361	0.24371	-0.046816	-0.15316	-0.008669	-0.046816	0.031938	-0.008669	0	0	0	-0.13692	0.036173	0.05732	-0.10441	0.033815	0.17197	-0.15994	-0.074767	0.067332
96	0.85671	-0.079588	-0.0068886	0.16796	-0.11145	-0.23953	0.21958	-0.091135	-0.23341	0.244	-0.046816	-0.15316	-0.008669	-0.046816	0.031938	-0.008669	0	0	0	-0.13684	0.036357	0.05728	-0.1044	0.034045	0.17195	-0.1599	-0.074565	0.067321
97	0.86573	-0.079601	-0.0067519	0.16798	-0.11141	-0.23934	0.21987	-0.091116	-0.2332	0.24429	-0.046816	-0.15316	-0.008669	-0.046816	0.031938	-0.008669	0	0	0	-0.13677	0.036543	0.057239	-0.10438	0.034279	0.17193	-0.15986	-0.07436	0.06731
98	0.87475	-0.079614	-0.0066127	0.168	-0.11138	-0.23914	0.22015	-0.091094	-0.23299	0.24457	-0.046816	-0.15316	-0.008669	-0.046816	0.031938	-0.008669	0	0	0	-0.13669	0.03673	0.057197	-0.10436	0.034517	0.17191	-0.15982	-0.074154	0.0673
99	0.88377	-0.079627	-0.006471	0.16802	-0.11134	-0.23894	0.22044	-0.091071	-0.23277	0.24487	-0.046816	-0.15316	-0.008669	-0.046816	0.031938	-0.008669	0	0	0	-0.13661	0.036918	0.057155	-0.10435	0.034759	0.17189	-0.15978	-0.073945	0.06729
100	0.89279	-0.079638	-0.0063267	0.16804	-0.11131	-0.23874	0.22074	-0.091045	-0.23255	0.24516	-0.046816	-0.15316	-0.008669	-0.046816	0.031938	-0.008669	0	0	0	-0.13653	0.037107	0.057111	-0.10433	0.035004	0.17187	-0.15974	-0.073734	0.06728
101	0.9018	-0.07965	-0.00618	0.16805	-0.11127	-0.23853	0.22103	-0.091019	-0.23233	0.24545	-0.046816	-0.15316	-0.008669	-0.046816	0.031938	-0.008669	0	0	0	-0.13645	0.037298	0.057068	-0.10431	0.035252	0.17185	-0.1597	-0.073521	0.067271
102	0.91082	-0.079661	-0.0060307	0.16807	-0.11123	-0.23832	0.22132	-0.09099	-0.2321	0.24574	-0.046816	-0.15316	-0.008669	-0.046816	0.031938	-0.008669	0	0	0	-0.13638	0.03749	0.057023	-0.10429	0.035504	0.17182	-0.15966	-0.073306	0.067262
103	0.91984	-0.079671	-0.0058791	0.16808	-0.11118	-0.2381	0.22161	-0.09096	-0.23187	0.24603	-0.046816	-0.15316	-0.008669	-0.046816	0.031938	-0.008669	0	0	0	-0.1363	0.037682	0.056978	-0.10428	0.03576	0.1718	-0.15962	-0.073089	0.067254
104	0.92886	-0.079681	-0.005725	0.1681	-0.11114	-0.23789	0.22191	-0.090929	-0.23163	0.24633	-0.046816	-0.15316	-0.008669	-0.046816	0.031938	-0.008669	0	0	0	-0.13622	0.037876	0.056932	-0.10426	0.036018	0.17178	-0.15957	-0.07287	0.067247
